<svg xmlns="http://www.w3.org/2000/svg" width="512" height="512" fill="none"><style>@media (prefers-color-scheme:dark){.part{fill:#fff}}</style><path fill="#0F172A" stroke="#0F172A" stroke-width=".008" d="M326.8 338.6c0 84.724-68.676 153.4-153.4 153.4S20 423.324 20 338.6s68.676-153.4 153.4-153.4c4.012 0 8.26.236 12.272.472 74.812 5.9 134.756 65.844 140.656 140.656.236 4.012.472 8.26.472 12.272Z" class="part"/><path fill="#0F172A" stroke="#0F172A" stroke-width=".008" d="M492 173.4c0 84.724-68.676 153.4-153.4 153.4-4.012 0-8.26-.236-12.272-.472-5.9-74.812-65.844-134.756-140.656-140.656-.236-4.012-.472-8.26-.472-12.272C185.2 88.676 253.876 20 338.6 20S492 88.676 492 173.4Z" class="part" opacity=".4"/><path fill="#0F172A" stroke="#0F172A" stroke-width=".008" d="M104.724 20H43.6C30.62 20 20 30.62 20 43.6v61.124c0 21.004 25.488 31.624 40.356 16.756l61.124-61.124C136.112 45.488 125.728 20 104.724 20Zm302.545 472h61.124c12.98 0 23.6-10.62 23.6-23.6v-61.124c0-21.004-25.488-31.624-40.356-16.756l-61.124 61.124C375.881 466.512 386.265 492 407.269 492Z" class="part"/></svg>